<svg width="20" height="19" viewBox="0 0 20 19" fill="none" xmlns="http://www.w3.org/2000/svg">
<path d="M10 19C4.75329 19 0.5 14.7467 0.5 9.5C0.5 4.25329 4.75329 0 10 0C15.2467 0 19.5 4.25329 19.5 9.5C19.5 14.7467 15.2467 19 10 19ZM6.56232 9.85317C6.28891 9.59685 5.85949 9.61071 5.60317 9.88411C5.34685 10.1575 5.36071 10.5869 5.63411 10.8433L8.3484 13.3879C8.63978 13.6611 9.10292 13.6247 9.34813 13.3095L14.0981 7.20232C14.3282 6.9065 14.2749 6.48017 13.9791 6.25008C13.6833 6.02 13.257 6.07329 13.0269 6.36911L8.73373 11.8889L6.56232 9.85317Z" fill="#4BA604"/>
</svg>
