<svg width="132" height="132" viewBox="0 0 132 132" fill="none" xmlns="http://www.w3.org/2000/svg">
<circle cx="66" cy="66" r="51" fill="black"/>
<path d="M84.375 65.9998C84.3761 66.4455 84.2618 66.8838 84.0433 67.2722C83.8248 67.6606 83.5095 67.9859 83.1281 68.2163L59.49 82.6768C59.0915 82.9208 58.635 83.0541 58.1678 83.0627C57.7006 83.0714 57.2395 82.9551 56.8322 82.726C56.4288 82.5005 56.0927 82.1715 55.8586 81.773C55.6244 81.3745 55.5007 80.9209 55.5 80.4587V51.541C55.5007 51.0788 55.6244 50.6252 55.8586 50.2267C56.0927 49.8282 56.4288 49.4992 56.8322 49.2737C57.2395 49.0446 57.7006 48.9283 58.1678 48.937C58.635 48.9456 59.0915 49.0789 59.49 49.3229L83.1281 63.7834C83.5095 64.0138 83.8248 64.3391 84.0433 64.7275C84.2618 65.1159 84.3761 65.5542 84.375 65.9998Z" fill="#FFD700"/>
</svg>
